# xmcd
#
# Track frame offsets: 
#        150
#        18969
#        40759
#        57959
#        87147
#        102453
#        120493
#        147449
#        167991
#        189589
#        220138
#        238908
#        263873
#        280975
#        297839
#        322371
#        338421
#
# Disc length: 4796 seconds
#
# Revision: 0
# Processed by: cddbd v1.5.2PL0 Copyright (c) Steve Scherf et al.
# Submitted via: ExactAudioCopy v1.3
#
DISCID=0312ba11
DTITLE=Various Artist - Akella Presents - vol. 123 - Electric Blues  
DTITLE=CD1
DYEAR=2018
DGENRE=Blues
TTITLE0=Per Frost - Black Crow Blues
TTITLE1=Lloyd Jones - Can't Get You Off My Mind
TTITLE2=James Montgomery - Born In Chicago
TTITLE3=Stefan Hauk - Heartache
TTITLE4=Tom McGuinness - I Got My Eye On You
TTITLE5=Best and Blues Power - Just a Little Bit
TTITLE6=Tinsley Ellis - Gamblin' Man
TTITLE7=Carl Verheyen - Stealing Gasoline
TTITLE8=Othman Wahabi - True Love
TTITLE9=Jimmy Thackery - Change The Rules
TTITLE10=The Radio Kings - I Can't Win
TTITLE11=Mark 'Mississippi Slide' Jeghers - Stink Butt Doggy Blues
TTITLE12=Long John Baldry - I'm Shakin'
TTITLE13=Jimmy and Poor Boys - If You Love Me Like You Do
TTITLE14=Zed Mitchell - Silence
TTITLE15=Sonny Kenn - Black Corvette
TTITLE16=Bill Wyman's Rhythm Kings - Booty Ooty
EXTD=
EXTT0=
EXTT1=
EXTT2=
EXTT3=
EXTT4=
EXTT5=
EXTT6=
EXTT7=
EXTT8=
EXTT9=
EXTT10=
EXTT11=
EXTT12=
EXTT13=
EXTT14=
EXTT15=
EXTT16=
PLAYORDER=
